{
  "accessors": [
    {
      "bufferView": 0,
      "byteOffset": 0,
      "componentType": 5123,
      "count": 42480,
      "type": "SCALAR",
      "max": [7378],
      "min": [0]
    },
    {
      "bufferView": 1,
      "byteOffset": 0,
      "componentType": 5126,
      "count": 7379,
      "type": "VEC3",
      "max": [20, 20, 20],
      "min": [-20, -20, -20],
      "name": "POSITION"
    },
    {
      "bufferView": 1,
      "byteOffset": 12,
      "componentType": 5126,
      "count": 7379,
      "type": "VEC3",
      "max": [1.0000044107437134, 1.0000044107437134, 1.0000044107437134],
      "min": [-1.0000044107437134, -1.0000044107437134, -1.0000044107437134],
      "name": "NORMAL"
    }
  ],
  "asset": { "generator": "Aspose.3D 24.4.1", "version": "2.0" },
  "buffers": [
    {
      "uri": "data:application/octet-stream;base64,",
      "byteLength": 262064
    }
  ],
  "bufferViews": [
    { "buffer": 0, "byteOffset": 0, "byteLength": 84960, "target": 34963 },
    { "buffer": 0, "byteOffset": 84964, "byteLength": 177096, "byteStride": 24, "target": 34962 }
  ],
  "materials": [
    {
      "name": "fallback Material",
      "pbrMetallicRoughness": { "baseColorFactor": [0, 0, 0, 1], "metallicFactor": 0, "roughnessFactor": 0 },
      "emissiveFactor": [0, 0, 0],
      "alphaMode": "OPAQUE",
      "doubleSided": false
    }
  ],
  "meshes": [
    { "primitives": [{ "attributes": { "POSITION": 1, "NORMAL": 2 }, "indices": 0, "material": 0, "mode": 4 }] }
  ],
  "nodes": [
    { "matrix": [0.0254, 0, 0, 0, 0, 0.0254, 0, 0, 0, 0, 0.0254, 0, 0, 0, 0, 1], "mesh": 0, "name": "Sphere001" },
    { "children": [0], "matrix": [1, 0, 0, 0, 0, 0, -1, 0, 0, 1, 0, 0, 0, 0, 0, 1], "name": "Node #1" }
  ],
  "scene": 0,
  "scenes": [{ "nodes": [1] }]
}
