{
  "accessors": [
    {
      "bufferView": 0,
      "byteOffset": 0,
      "componentType": 5123,
      "count": 92160,
      "type": "SCALAR",
      "max": [15702],
      "min": [0]
    },
    {
      "bufferView": 1,
      "byteOffset": 0,
      "componentType": 5126,
      "count": 15703,
      "type": "VEC3",
      "max": [45.95012664794922, 45.93963623046875, 63.49005889892578],
      "min": [-45.95012664794922, -45.93963623046875, -23.560800552368164],
      "name": "POSITION"
    },
    {
      "bufferView": 1,
      "byteOffset": 12,
      "componentType": 5126,
      "count": 15703,
      "type": "VEC3",
      "max": [1.000002384185791, 1.0000029802322388, 1.0000044107437134],
      "min": [-1.000002384185791, -1.0000029802322388, -1.0000044107437134],
      "name": "NORMAL"
    }
  ],
  "asset": { "generator": "Aspose.3D 24.4.1", "version": "2.0" },
  "buffers": [
    {
      "uri": "data:application/octet-stream;base64,",
      "byteLength": 561200
    }
  ],
  "bufferViews": [
    { "buffer": 0, "byteOffset": 0, "byteLength": 184320, "target": 34963 },
    { "buffer": 0, "byteOffset": 184324, "byteLength": 376872, "byteStride": 24, "target": 34962 }
  ],
  "materials": [
    {
      "name": "fallback Material",
      "pbrMetallicRoughness": { "baseColorFactor": [0, 0, 0, 1], "metallicFactor": 0, "roughnessFactor": 0 },
      "emissiveFactor": [0, 0, 0],
      "alphaMode": "OPAQUE",
      "doubleSided": false,
      "pbrMetallicRoughness": {
        "metallicFactor": 0.0
      }
    }
  ],
  "meshes": [
    { "primitives": [{ "attributes": { "POSITION": 1, "NORMAL": 2 }, "indices": 0, "material": 0, "mode": 4 }] }
  ],
  "nodes": [
    { "matrix": [0.0254, 0, 0, 0, 0, 0.0254, 0, 0, 0, 0, 0.0254, 0, 0, 0, 0, 1], "mesh": 0, "name": "Box001" },
    { "children": [0], "matrix": [1, 0, 0, 0, 0, 0, -1, 0, 0, 1, 0, 0, 0, -0.508, 0, 1], "name": "Node #1" }
  ],
  "scene": 0,
  "scenes": [{ "nodes": [1] }]
}
